<?xml version="1.0"?><!DOCTYPE svg  PUBLIC '-//W3C//DTD SVG 1.1//EN'  'http://www.w3.org/Graphics/SVG/1.1/DTD/svg11.dtd'><svg enable-background="new 0 0 200 200" height="200px" version="1.1" viewBox="0 0 200 200" width="200px" xml:space="preserve" xmlns="http://www.w3.org/2000/svg" xmlns:xlink="http://www.w3.org/1999/xlink"><g id="icon"><g id="Layer_2"/><g><g><linearGradient gradientTransform="matrix(0.9984 -0.0065 -4.000000e-04 -1.0016 -49.3196 64.294)" gradientUnits="userSpaceOnUse" id="SVGID_1_" x1="97.4414" x2="135.3516" y1="1.8247" y2="-28.1147"><stop offset="0.097" style="stop-color:#FFFFFF"/><stop offset="0.2258" style="stop-color:#F9F9FA"/><stop offset="0.3987" style="stop-color:#E8E8EA"/><stop offset="0.5967" style="stop-color:#CDCCD1"/><stop offset="0.8117" style="stop-color:#A6A5AE"/><stop offset="1" style="stop-color:#7F7D8A"/></linearGradient><path d="M65.012,147.984c-4.347,0.024-8.316-3.02-9.662-7.396L39.007,86.903     c-0.802-2.633-0.563-5.318,0.667-7.559c1.189-2.162,6.338-10.37,6.338-10.37l82.866-14.772c0.647-0.125,1.322-0.184,1.991-0.158     c4.347,0.122,8.316,3.221,9.662,7.527l18.945,55.111c0,0-4.746,7.611-5.979,9.783c-0.237,0.418-0.51,0.809-0.798,1.172     c-1.19,1.463-2.832,2.469-4.747,2.896L67,147.745C66.357,147.898,65.685,147.98,65.012,147.984z" fill="url(#SVGID_1_)"/></g><g><linearGradient gradientTransform="matrix(0.9984 -0.0065 -4.000000e-04 -1.0016 -49.3196 64.294)" gradientUnits="userSpaceOnUse" id="SVGID_2_" x1="148.0742" x2="169.0939" y1="-15.8506" y2="-88.9411"><stop offset="0.097" style="stop-color:#FFFFFF"/><stop offset="0.2258" style="stop-color:#F9F9FA"/><stop offset="0.3987" style="stop-color:#E8E8EA"/><stop offset="0.5967" style="stop-color:#CDCCD1"/><stop offset="0.8117" style="stop-color:#A6A5AE"/><stop offset="1" style="stop-color:#7F7D8A"/></linearGradient><path d="M70.993,138.208c-4.345,0.022-8.317-3.019-9.66-7.406l-16.347-53.68     c-0.8-2.633-0.565-5.318,0.668-7.561c1.189-2.159,3.152-3.627,5.545-4.132l80.951-16.365c0.651-0.123,1.324-0.177,1.992-0.157     c4.346,0.119,8.319,3.226,9.662,7.527l16.346,52.992c0.8,2.516,0.56,5.086-0.674,7.256c-1.182,2.092-3.146,3.539-5.539,4.074     l-80.949,17.208C72.334,138.117,71.662,138.201,70.993,138.208z" fill="url(#SVGID_2_)"/></g><g opacity="0.57"><path d="M133.814,51.007c0.082,0,0.17-0.004,0.252,0.006c3.471,0.1,6.652,2.597,7.734,6.071l16.348,52.989     c0.625,1.946,0.447,3.928-0.491,5.577c-0.888,1.57-2.361,2.656-4.179,3.054l-80.963,17.213c-0.49,0.118-1.008,0.185-1.52,0.187     c-3.438,0.02-6.579-2.416-7.654-5.927L46.993,76.506c-0.634-2.087-0.462-4.198,0.499-5.936c0.881-1.611,2.353-2.712,4.113-3.075     l80.932-16.362C132.957,51.051,133.383,51.008,133.814,51.007 M133.814,48.907c-0.561,0.001-1.119,0.055-1.664,0.157     L51.199,65.43c-2.393,0.505-4.355,1.973-5.545,4.132c-1.233,2.242-1.468,4.928-0.668,7.561l16.347,53.68     c1.343,4.389,5.315,7.43,9.66,7.406c0,0,0.007,0,0.009,0c0.666-0.007,1.335-0.091,1.987-0.243l80.949-17.208     c2.393-0.535,4.357-1.982,5.539-4.074c1.232-2.17,1.474-4.74,0.674-7.256l-16.346-52.992c-1.343-4.302-5.316-7.408-9.662-7.527     C134.032,48.903,133.921,48.907,133.814,48.907L133.814,48.907z" fill="#FFFFFF"/></g><path d="M86.439,102.628c0.463,2.177-0.372,4.081-2.504,5.715c-1.453,1.13-2.965,1.862-4.535,2.196    c-2.536,0.54-4.329,0.588-5.381,0.146c-1.141-0.459-2.455-1.848-3.939-4.166c-1.436-2.242-2.334-4.213-2.695-5.916    c-0.631-2.959-0.266-6.023,1.098-9.187c1.555-3.545,3.877-5.647,6.969-6.306c0.785-0.167,1.75-0.074,2.895,0.281    c1.145,0.356,2.061,0.883,2.748,1.584c0.688,0.699,1.088,1.312,1.199,1.835c0.091,0.425-0.05,0.729-0.422,0.911    c-0.472,0.356-0.937,0.583-1.395,0.681c-0.605,0.128-1.315-0.036-2.132-0.495c-0.815-0.459-1.388-0.654-1.715-0.584    c-2.013,0.428-3.344,2.088-3.993,4.979c-0.492,2.106-0.579,3.911-0.259,5.416c0.32,1.506,0.917,2.901,1.789,4.188    c1.312,1.908,2.843,2.67,4.59,2.279c0.929-0.213,1.581-0.524,1.956-0.93c0.25-0.275,0.557-0.888,0.918-1.838    c0.461-1.208,0.98-2.303,1.559-3.28c0.517-0.709,1.146-0.843,1.891-0.402C85.648,100.077,86.102,101.041,86.439,102.628z"/><path d="M98.199,108.104c-0.045,0.438-0.476,0.741-1.293,0.916c-0.736,0.156-1.329,0.164-1.779,0.021    c-0.449-0.146-0.766-0.401-0.947-0.772c-0.131-0.298-0.255-0.596-0.369-0.896c-0.368-2.129-0.972-6.207-1.809-12.236    c-0.773-5.719-1.178-8.668-1.217-8.848c-0.232-1.096-0.602-1.659-1.104-1.689c-1.552,0.022-3.104,0.045-4.654,0.067    c-0.523-0.128-0.865-0.568-1.025-1.321c-0.194-0.916-0.087-1.571,0.325-1.968c0.671-0.382,1.53-0.685,2.577-0.907    c0.295-0.062,1.703-0.277,4.225-0.643c1.941-0.276,3.611-0.631,5.007-1.065c0.939-0.166,1.521,0.275,1.743,1.322    c0.094,0.44,0.106,0.943,0.039,1.505c-0.225,0.8-1.043,1.41-2.459,1.832c-1.305,0.38-1.925,0.76-1.86,1.139l3.062,14.151    c0.179,0.68,0.448,1.665,0.81,2.956c0.277,0.984,0.467,1.714,0.567,2.188C98.316,105.162,98.37,106.579,98.199,108.104z"/><path d="M128.172,108.395c0.178,0.68,0.104,1.379-0.221,2.099c-0.387,0.836-1.014,1.345-1.881,1.528    c-1.57,0.334-3.014,0.104-4.329-0.693c-0.886-0.547-2.195-1.756-3.927-3.627c-0.33-0.342-1.021-1.764-2.076-4.268    c-1.055-2.502-2.135-4.381-3.238-5.634c-0.391-0.635-0.809-1.102-1.247-1.402c-0.366-0.195-0.743-0.397-1.13-0.605    c-0.71-0.123-1.286-0.137-1.729-0.043c-0.506,0.108-0.791,0.339-0.853,0.695c-0.086,0.479,0.028,1.78,0.345,3.901    c0.309,2.175,0.412,3.632,0.313,4.372c-0.056,0.304-0.183,0.552-0.38,0.747c-0.396,0.393-0.635,0.639-0.715,0.742    c-0.155,0.152-0.39,0.263-0.699,0.328c-1.311,0.277-2.208-0.128-2.697-1.223c-0.173-0.492-0.343-1.328-0.508-2.508    c-0.21-1.546-0.331-2.4-0.366-2.563l-0.89-7.071l-0.901-8.938c-0.428-0.08-0.854-0.152-1.277-0.217    c-0.771-0.246-1.199-0.728-1.282-1.446c-0.086-1.042,0.13-1.755,0.647-2.138c1.09-0.746,3.509-1.516,7.255-2.313    c3.551-0.755,6.189-0.608,7.92,0.443c1.803,1.087,3.08,3.39,3.828,6.906c0.641,3.011-0.518,5.882-3.477,8.615    c1.306,2.44,2.992,5.905,5.059,10.393c0.329,0.902,1.372,1.825,3.131,2.77C124.775,108.271,126.55,108.652,128.172,108.395z     M113.24,87.175c-0.303-1.422-0.629-2.354-0.979-2.792c-0.475-0.617-1.349-0.944-2.621-0.981l-3.166,0.674    c-0.375,2.577-0.371,4.765,0.012,6.564c0.199,0.932,0.496,1.725,0.892,2.376c1.67,0.055,3.237-0.295,4.701-1.052    C113.182,90.311,113.568,88.714,113.24,87.175z"/><path d="M142.564,95.507c0.357,1.684-0.067,3.101-1.276,4.246c-0.979,0.942-2.328,1.599-4.046,1.965    c-1.146,0.243-4.143,0.31-8.988,0.194c-0.812,0.121-1.627,0.234-2.441,0.34c-0.945,0.133-1.678-0.045-2.19-0.533    c-0.082-0.223-0.146-0.449-0.195-0.678c-0.146-0.688-0.1-1.595,0.14-2.722c0.275-1.273,0.391-2.221,0.344-2.845    c-0.161-2.686-0.594-6.047-1.301-10.087c-1.104-6.315-1.676-9.661-1.713-10.037c-0.037-0.378,0.235-0.804,0.818-1.277    c0.583-0.475,1.193-0.78,1.831-0.916c1.112-0.236,1.724,0.182,1.832,1.253c0.224,2.175,0.578,5.571,1.063,10.188l0.888,8.506    c0.255,0.152,0.501,0.383,0.737,0.69c0.236,0.31,0.486,0.521,0.75,0.636c0.529-0.009,1.75-0.218,3.664-0.626    c-0.114,0.025,0.469-0.15,1.748-0.525s2.41-0.666,3.393-0.875c1.604-0.342,2.742-0.447,3.421-0.318    c0.026,0.131,0.26,0.599,0.697,1.403C142.174,94.293,142.449,94.966,142.564,95.507z"/><path d="M160.15,109.425l-16.346-52.992c-1.343-4.302-5.316-7.408-9.664-7.528    c-0.108-0.003-0.221,0-0.326,0c-0.561,0.002-1.119,0.055-1.664,0.158L51.199,65.43c-2.15,0.454-3.925,1.727-5.134,3.538    l-0.054,0.007c0,0-5.148,8.208-6.338,10.37c-1.23,2.24-1.469,4.926-0.667,7.559l16.343,53.686    c1.346,4.377,5.315,7.422,9.662,7.396c0.673-0.004,1.346-0.088,1.989-0.239l80.953-17.214c1.915-0.43,3.557-1.436,4.747-2.897    c0.286-0.362,0.56-0.754,0.798-1.172c1.23-2.171,5.979-9.782,5.979-9.782C160.71,114.511,160.949,111.939,160.15,109.425z" fill="#C2EBFF" opacity="0.11"/></g></g><g id="outline_x5F_white"><g><path d="M134.032,48.905c0.036,0,0.073,0,0.11,0.002c4.346,0.119,8.319,3.226,9.662,7.527l16.346,52.992    c0.8,2.516,0.56,5.086-0.674,7.256c0,0-4.746,7.611-5.979,9.783c-0.237,0.418-0.51,0.809-0.798,1.172    c-1.19,1.463-2.832,2.469-4.747,2.896L67,147.745c-0.644,0.151-1.316,0.235-1.989,0.239c-0.018,0-0.034,0-0.052,0    c-4.326,0-8.271-3.037-9.61-7.396L39.007,86.903c-0.802-2.633-0.563-5.318,0.667-7.559c1.189-2.162,6.338-10.37,6.338-10.37    l0.054-0.007c1.209-1.812,2.983-3.084,5.134-3.538l80.95-16.365c0.545-0.103,1.104-0.156,1.664-0.157    C133.887,48.907,133.959,48.905,134.032,48.905 M134.032,36.905l-0.255,0.002h0.037c-1.312,0.002-2.611,0.125-3.885,0.364    c-0.053,0.01-0.104,0.02-0.158,0.031L48.821,53.667c-0.034,0.007-0.067,0.014-0.102,0.021c-4.708,0.995-8.853,3.624-11.807,7.462    c-0.389,0.452-0.746,0.936-1.067,1.448c-0.891,1.419-5.396,8.618-6.687,10.962c-2.806,5.108-3.384,11.086-1.632,16.839    l16.342,53.685c2.883,9.376,11.551,15.9,21.09,15.9h0.114c1.523-0.008,3.044-0.186,4.528-0.523l80.847-17.189    c0.041-0.008,0.08-0.017,0.121-0.024c4.565-1.021,8.521-3.452,11.436-7.031c0.033-0.04,0.064-0.08,0.098-0.121    c0.691-0.87,1.309-1.78,1.832-2.702c0.81-1.429,3.939-6.498,5.725-9.357c0.088-0.141,0.172-0.281,0.253-0.426    c2.894-5.094,3.493-11.043,1.692-16.76L155.27,52.899c-2.9-9.302-11.236-15.707-20.762-15.985    C134.352,36.908,134.191,36.905,134.032,36.905L134.032,36.905z" fill="#FFFFFF"/></g></g><g id="outline_x5F_black"><g><path d="M134.032,48.905c0.036,0,0.073,0,0.11,0.002c4.346,0.119,8.319,3.226,9.662,7.527l16.346,52.992    c0.8,2.516,0.56,5.086-0.674,7.256c0,0-4.746,7.611-5.979,9.783c-0.237,0.418-0.51,0.809-0.798,1.172    c-1.19,1.463-2.832,2.469-4.747,2.896L67,147.745c-0.644,0.151-1.316,0.235-1.989,0.239c-0.018,0-0.034,0-0.052,0    c-4.326,0-8.271-3.037-9.61-7.396L39.007,86.903c-0.802-2.633-0.563-5.318,0.667-7.559c1.189-2.162,6.338-10.37,6.338-10.37    l0.054-0.007c1.209-1.812,2.983-3.084,5.134-3.538l80.95-16.365c0.545-0.103,1.104-0.156,1.664-0.157    C133.887,48.907,133.959,48.905,134.032,48.905 M134.032,42.905l-0.183,0.001c-0.969,0.002-1.897,0.09-2.81,0.261    c-0.026,0.005-0.054,0.01-0.079,0.016L50.01,59.549c-0.017,0.003-0.034,0.007-0.051,0.01c-3.354,0.708-6.308,2.61-8.398,5.391    c-0.233,0.258-0.445,0.538-0.633,0.837c-0.536,0.855-5.275,8.418-6.512,10.666c-2.019,3.675-2.427,8.006-1.15,12.199    l16.343,53.685c2.111,6.866,8.42,11.649,15.35,11.649h0.082c1.097-0.008,2.193-0.135,3.265-0.383l80.896-17.199    c0.021-0.006,0.04-0.01,0.06-0.014c3.239-0.724,6.037-2.439,8.092-4.965c0.018-0.02,0.033-0.04,0.049-0.06    c0.502-0.632,0.943-1.283,1.314-1.938c0.961-1.693,4.551-7.482,5.852-9.57c0.045-0.068,0.086-0.14,0.127-0.211    c2.062-3.633,2.481-7.896,1.183-12.011l-16.339-52.97c-2.104-6.741-8.363-11.568-15.23-11.756    C134.246,42.907,134.139,42.905,134.032,42.905L134.032,42.905z"/></g></g></svg>