<?xml version="1.0"?><!DOCTYPE svg  PUBLIC '-//W3C//DTD SVG 1.1//EN'  'http://www.w3.org/Graphics/SVG/1.1/DTD/svg11.dtd'><svg enable-background="new 0 0 200 200" height="200px" version="1.1" viewBox="0 0 200 200" width="200px" xml:space="preserve" xmlns="http://www.w3.org/2000/svg" xmlns:xlink="http://www.w3.org/1999/xlink"><g id="icon"><g id="Layer_2"/><g><g><linearGradient gradientTransform="matrix(0.9984 -0.0065 -4.000000e-04 -1.0016 -49.3196 64.294)" gradientUnits="userSpaceOnUse" id="SVGID_1_" x1="88.104" x2="132.6634" y1="7.666" y2="-27.5245"><stop offset="0.097" style="stop-color:#FFFFFF"/><stop offset="0.2258" style="stop-color:#F9F9FA"/><stop offset="0.3987" style="stop-color:#E8E8EA"/><stop offset="0.5967" style="stop-color:#CDCCD1"/><stop offset="0.8117" style="stop-color:#A6A5AE"/><stop offset="1" style="stop-color:#7F7D8A"/></linearGradient><path d="M34.548,145.968c-3.334,0.019-6.377-2.317-7.408-5.673L14.6,99.103     c-0.614-2.018-0.435-4.078,0.513-5.795c0.912-1.66,4.862-7.957,4.862-7.957l138.322-27.25c0.498-0.098,1.016-0.139,1.528-0.122     c3.334,0.097,6.382,2.47,7.411,5.773l14.541,42.281c0,0-3.646,5.843-4.588,7.504c-0.186,0.324-0.392,0.624-0.611,0.904     c-0.915,1.119-2.174,1.895-3.643,2.222L36.077,145.784C35.581,145.898,35.063,145.964,34.548,145.968z" fill="url(#SVGID_1_)"/></g><g><linearGradient gradientTransform="matrix(0.9984 -0.0065 -4.000000e-04 -1.0016 -49.3196 64.294)" gradientUnits="userSpaceOnUse" id="SVGID_2_" x1="146.8945" x2="164.5261" y1="-20.873" y2="-82.1822"><stop offset="0.097" style="stop-color:#FFFFFF"/><stop offset="0.2258" style="stop-color:#F9F9FA"/><stop offset="0.3987" style="stop-color:#E8E8EA"/><stop offset="0.5967" style="stop-color:#CDCCD1"/><stop offset="0.8117" style="stop-color:#A6A5AE"/><stop offset="1" style="stop-color:#7F7D8A"/></linearGradient><path d="M39.14,138.465c-3.333,0.023-6.382-2.314-7.412-5.677L19.184,91.601     c-0.608-2.016-0.431-4.081,0.513-5.799c0.915-1.657,2.422-2.78,4.258-3.171l136.859-28.475c0.498-0.091,1.013-0.138,1.525-0.122     c3.333,0.098,6.383,2.477,7.412,5.776l12.539,40.659c0.611,1.926,0.43,3.898-0.514,5.563c-0.911,1.608-2.42,2.717-4.256,3.128     L40.671,138.277C40.168,138.396,39.656,138.461,39.14,138.465z" fill="url(#SVGID_2_)"/></g><g opacity="0.57"><path d="M162.089,55.646c0.063,0,0.13,0,0.193,0.004c2.661,0.077,5.1,1.993,5.936,4.659l12.538,40.654     c0.479,1.496,0.342,3.012-0.375,4.278c-0.684,1.206-1.816,2.039-3.209,2.343L40.307,136.71c-0.375,0.086-0.769,0.138-1.166,0.14     c-2.634,0.019-5.05-1.853-5.872-4.543L20.725,91.128c-0.483-1.603-0.352-3.22,0.383-4.551c0.678-1.238,1.806-2.082,3.156-2.361     l136.843-28.473C161.428,55.681,161.757,55.646,162.089,55.646 M162.089,54.034c-0.433,0.006-0.862,0.045-1.274,0.122     L23.954,82.631c-1.836,0.391-3.343,1.514-4.258,3.171c-0.943,1.718-1.121,3.783-0.513,5.799l12.544,41.188     c1.03,3.361,4.079,5.7,7.412,5.677c0.001,0,0.004,0,0.007,0c0.511-0.004,1.023-0.067,1.525-0.186l136.851-29.118     c1.836-0.411,3.345-1.52,4.256-3.128c0.943-1.665,1.125-3.638,0.514-5.563l-12.539-40.659c-1.029-3.3-4.079-5.679-7.412-5.776     C162.257,54.034,162.173,54.034,162.089,54.034L162.089,54.034z" fill="#FFFFFF"/></g><path d="M182.291,100.47l-12.539-40.659c-1.029-3.3-4.079-5.679-7.412-5.776    c-0.083,0-0.167,0-0.251,0c-0.433,0.006-0.862,0.045-1.274,0.122L23.954,82.631c-1.651,0.353-3.012,1.323-3.938,2.713    l-0.041,0.007c0,0-3.95,6.297-4.862,7.957c-0.947,1.717-1.127,3.777-0.513,5.795l12.54,41.192    c1.031,3.355,4.074,5.691,7.408,5.673c0.516-0.004,1.033-0.067,1.529-0.184l136.858-29.121c1.469-0.327,2.728-1.103,3.643-2.222    c0.221-0.28,0.427-0.58,0.611-0.904c0.942-1.661,4.588-7.504,4.588-7.504C182.721,104.368,182.902,102.396,182.291,100.47z" fill="#C2EBFF" opacity="0.11"/><path d="M78.098,104.709c0.433,2.033,0.368,3.824-0.194,5.375c-0.726,2.018-2.236,3.27-4.533,3.759    c-1.318,0.28-2.788-0.093-4.41-1.118s-2.564-2.152-2.826-3.384c-0.169-0.791-0.027-1.608,0.423-2.45    c0.528-1.031,1.412-1.811,2.652-2.338c0.274,0.062,0.445,0.247,0.513,0.562c0.056,0.264,0.035,0.768-0.063,1.509    c-0.097,0.743-0.118,1.245-0.062,1.509c0.506,2.373,1.643,3.372,3.412,2.995c2.373-0.505,3.243-2.238,2.613-5.202    c-0.409-1.921-1.43-3.323-3.061-4.21c-1.471-0.617-2.941-1.243-4.414-1.874c-1.637-0.846-2.647-2.173-3.032-3.98    c-0.286-1.343,0.12-2.55,1.217-3.624c0.913-0.89,1.991-1.467,3.233-1.73c1.079-0.229,2.426,0.303,4.041,1.6    c0.475,0.384,0.773,0.859,0.893,1.424c0.155,0.728-0.275,1.2-1.293,1.417c-0.326,0.069-0.639-0.074-0.938-0.431    c-0.376-0.471-0.601-0.726-0.674-0.762c-0.851-0.423-1.49-0.589-1.916-0.498c-0.465,0.1-0.816,0.325-1.057,0.678    c-0.163,0.284-0.332,0.569-0.507,0.855c-0.126,0.644-0.005,1.209,0.36,1.694c3.022,0.945,5.276,2.06,6.764,3.343    C76.725,101.109,77.679,102.738,78.098,104.709z"/><path d="M91.754,100.72c0.151,0.716,0.274,1.938,0.365,3.661c0.117,1.971,0.104,3.448-0.04,4.438    c-0.241,0.654-0.918,1.14-2.032,1.457c-1.191,0.316-2.377,0.636-3.556,0.951c-0.24,0.104-0.48,0.209-0.721,0.312    c-0.141,0.082-0.196,0.311-0.169,0.686c-0.122-0.447,0.394,2.034,1.545,7.444c-0.251,0.854-0.953,1.285-2.105,1.296    c-0.904,0.008-1.489-0.273-1.755-0.848c-0.165-0.346-0.356-1.025-0.572-2.043c-0.268-1.256-0.715-3.85-1.342-7.783    c-0.597-3.665-1.017-6.011-1.261-7.033c-0.093-0.373-0.399-1.477-0.921-3.308c-0.462-1.62-0.8-2.926-1.011-3.918    c-0.336-1.581-0.47-2.825-0.4-3.732c1.013-0.729,2.21-1.238,3.591-1.532c1.354-0.288,2.638-0.306,3.846-0.051    c3.356,0.73,5.33,2.48,5.921,5.254c0.114,0.54,0.22,1.345,0.316,2.413C91.549,99.451,91.649,100.23,91.754,100.72z     M89.258,105.915c0.078-0.122,0.082-0.692,0.009-1.714c-0.103-1.159-0.274-2.311-0.518-3.451    c-0.893-4.192-2.268-6.092-4.125-5.696c-1.569,0.334-2.562,0.696-2.978,1.086c-0.145,0.491-0.176,1.113-0.094,1.869    c0.065,0.551,0.207,1.25,0.426,2.094c0.305,1.184,0.463,1.806,0.477,1.868c0.197,0.93,0.724,3.186,1.578,6.769    c1.139-0.07,2.175-0.291,3.106-0.661C87.811,107.962,88.517,107.24,89.258,105.915z"/><path d="M103.771,103.93c-0.166,0.756-0.539,1.313-1.119,1.674c-0.362,0.207-1.024,0.429-1.984,0.658    c-2.812,0.664-4.97-0.845-6.475-4.525c-0.086-0.217-0.156-0.459-0.213-0.723c-0.205-0.966-0.186-1.831,0.059-2.592    c0.611-1.441,1.141-2.381,1.586-2.816c0.74-0.709,2.094-1.292,4.056-1.748c0.257-0.029,0.3-0.444,0.128-1.248    c-0.453-2.134-1.064-3.093-1.833-2.878c-0.114,0.013-0.223,0.029-0.323,0.051c-0.527,0.112-1.055,0.546-1.583,1.301    c-0.528,0.755-0.968,1.169-1.319,1.244c-0.226,0.048-0.475,0.023-0.744-0.076c-0.48-0.161-0.789-0.621-0.924-1.379    c-0.136-0.823,0.255-1.763,1.172-2.817c0.917-1.054,1.857-1.69,2.821-1.909c1.749-0.412,3.269-0.086,4.558,0.978    c0.685,0.563,1.048,1.53,1.089,2.897c0.022,0.232,0.482,2.391,1.379,6.477c0.528,1.502,1.267,3.884,2.209,7.146    c0.315,1.299,0.055,2.069-0.787,2.313C104.844,106.154,104.26,105.479,103.771,103.93z M100.529,98.123    c-0.262-1.229-0.723-1.728-1.381-1.495c-1.587,0.56-2.172,1.812-1.758,3.758c0.191,0.904,0.36,1.511,0.505,1.821    c0.397,0.82,0.962,1.16,1.692,1.018c1.323-0.256,1.752-1.48,1.284-3.679c-0.046-0.213-0.109-0.48-0.191-0.805    C100.598,98.416,100.549,98.211,100.529,98.123z"/><path d="M120.934,97.363c0.355,1.669-0.285,3.131-1.92,4.384c-1.115,0.867-2.273,1.43-3.479,1.687    c-1.946,0.414-3.322,0.449-4.131,0.11c-0.875-0.353-1.881-1.417-3.021-3.195c-1.101-1.72-1.79-3.233-2.067-4.539    c-0.483-2.271-0.203-4.621,0.844-7.047c1.191-2.72,2.974-4.334,5.346-4.838c0.604-0.129,1.344-0.057,2.221,0.216    c0.879,0.273,1.582,0.677,2.108,1.214s0.834,1.007,0.92,1.408c0.069,0.327-0.038,0.56-0.323,0.699    c-0.361,0.273-0.719,0.448-1.068,0.523c-0.465,0.099-1.012-0.028-1.637-0.381c-0.627-0.353-1.063-0.501-1.315-0.448    c-1.544,0.329-2.565,1.603-3.063,3.821c-0.377,1.615-0.443,2.999-0.197,4.154c0.246,1.155,0.703,2.227,1.371,3.212    c1.008,1.465,2.182,2.048,3.521,1.749c0.713-0.164,1.214-0.402,1.501-0.713c0.19-0.211,0.427-0.68,0.704-1.409    c0.354-0.929,0.753-1.767,1.195-2.518c0.396-0.543,0.88-0.646,1.449-0.309C120.327,95.405,120.675,96.146,120.934,97.363z"/><path d="M133.545,89.483c-0.342,0.492-0.568,0.811-0.684,0.952c-0.242,0.275-0.533,0.514-0.87,0.716    c-2.132,1.268-4.123,2.236-5.976,2.905c0.76,1.413,1.297,2.304,1.61,2.669c0.672,0.815,1.422,1.134,2.251,0.958    c0.264-0.057,0.719-0.234,1.361-0.536c0.646-0.301,1.148-0.49,1.514-0.568c0.338-0.071,0.656-0.086,0.954-0.045    c0.231,0.108,0.379,0.3,0.438,0.576c0.068,0.326-0.004,0.657-0.223,0.991c-0.336,0.518-0.92,1.042-1.751,1.574    c-0.718,0.454-1.282,0.726-1.696,0.813c-2.298,0.489-4.347-0.296-6.148-2.353c-1.401-1.591-2.311-3.359-2.725-5.305    c-0.73-3.438-0.879-5.921-0.441-7.443c1.042-1.888,2.384-3.008,4.029-3.357c2.146-0.457,3.949-0.093,5.408,1.094    c1.361,1.101,2.273,2.736,2.735,4.907C133.434,88.497,133.504,88.981,133.545,89.483z M129.441,89.255    c-0.396-0.992-0.781-1.979-1.16-2.961c-0.561-1.207-1.315-1.708-2.27-1.505c-0.666,0.142-1.021,0.9-1.07,2.274    c-0.012,0.501,0.07,1.908,0.248,4.218c0.363,0.041,0.848-0.023,1.455-0.191c1.013-0.295,1.5-0.438,1.463-0.43    c0.451-0.096,0.771-0.288,0.959-0.578C129.191,89.807,129.316,89.53,129.441,89.255z"/></g></g><g id="outline_x5F_white"><g><path d="M162.34,54.034c3.333,0.098,6.383,2.477,7.412,5.776l12.539,40.659c0.611,1.926,0.43,3.898-0.514,5.563    c0,0-3.646,5.843-4.588,7.504c-0.186,0.325-0.392,0.624-0.611,0.905c-0.915,1.119-2.174,1.894-3.643,2.221L36.077,145.784    c-0.496,0.114-1.014,0.18-1.529,0.184c-0.013,0-0.026,0-0.04,0c-3.318,0-6.341-2.331-7.369-5.673L14.6,99.103    c-0.614-2.018-0.435-4.078,0.513-5.795c0.912-1.66,4.862-7.957,4.862-7.957l0.041-0.007c0.927-1.39,2.287-2.36,3.938-2.713    l136.858-28.475c0.414-0.077,0.844-0.116,1.275-0.122C162.173,54.034,162.257,54.034,162.34,54.034 M162.34,42.034h-0.251    c-0.054,0-0.108,0-0.162,0.001c-1.128,0.016-2.243,0.125-3.315,0.325c-0.08,0.015-0.161,0.031-0.241,0.047L21.51,70.882    c-0.021,0.004-0.041,0.009-0.061,0.013c-4.262,0.91-8.007,3.287-10.669,6.747c-0.353,0.419-0.677,0.863-0.971,1.331    c-0.97,1.546-4.212,6.732-5.214,8.556c-2.516,4.56-3.043,9.918-1.476,15.069l12.54,41.191    c2.569,8.359,10.316,14.178,18.849,14.178c0.015,0,0.069,0,0.084,0c1.388-0.011,2.74-0.166,4.063-0.464L175.434,128.4    c0.037-0.008,0.074-0.017,0.111-0.024c4.112-0.916,7.682-3.106,10.323-6.338c0.051-0.062,0.101-0.125,0.149-0.188    c0.603-0.767,1.143-1.57,1.607-2.391c0.564-0.993,2.874-4.736,4.333-7.076c0.09-0.143,0.176-0.288,0.259-0.436    c2.598-4.586,3.141-9.928,1.529-15.052l-12.528-40.623c-2.585-8.281-10.026-13.985-18.526-14.234    C162.574,42.036,162.457,42.034,162.34,42.034L162.34,42.034z" fill="#FFFFFF"/></g></g><g id="outline_x5F_black"><g><path d="M162.34,54.034c3.333,0.098,6.383,2.477,7.412,5.776l12.539,40.659c0.611,1.926,0.43,3.898-0.514,5.563    c0,0-3.646,5.843-4.588,7.504c-0.186,0.325-0.392,0.624-0.611,0.905c-0.915,1.119-2.174,1.894-3.643,2.221L36.077,145.784    c-0.496,0.114-1.014,0.18-1.529,0.184c-0.013,0-0.026,0-0.04,0c-3.318,0-6.341-2.331-7.369-5.673L14.6,99.103    c-0.614-2.018-0.435-4.078,0.513-5.795c0.912-1.66,4.862-7.957,4.862-7.957l0.041-0.007c0.927-1.39,2.287-2.36,3.938-2.713    l136.858-28.475c0.414-0.077,0.844-0.116,1.275-0.122C162.173,54.034,162.257,54.034,162.34,54.034 M162.34,48.034h-0.251    c-0.026,0-0.054,0-0.081,0c-0.785,0.011-1.559,0.086-2.296,0.224c-0.04,0.007-0.08,0.015-0.121,0.024L22.732,76.757    c-2.93,0.625-5.481,2.266-7.281,4.655c-0.205,0.234-0.392,0.484-0.559,0.75c-0.414,0.659-4.071,6.495-5.039,8.257    c-1.731,3.137-2.085,6.845-0.994,10.433l12.54,41.19c1.798,5.851,7.187,9.926,13.108,9.926c0.011,0,0.061,0,0.072,0    c0.94-0.007,1.875-0.116,2.792-0.325l136.812-29.11c0.019-0.005,0.037-0.009,0.055-0.013c2.787-0.621,5.201-2.101,6.984-4.278    c0.023-0.031,0.049-0.062,0.073-0.095c0.425-0.539,0.786-1.078,1.108-1.646c0.725-1.273,3.467-5.693,4.462-7.29    c0.045-0.071,0.088-0.146,0.13-0.218c1.771-3.127,2.133-6.788,1.02-10.313l-12.531-40.635c-1.789-5.728-7.119-9.834-12.971-10.006    C162.457,48.035,162.398,48.034,162.34,48.034L162.34,48.034z"/></g></g></svg>